o KeyC
v -7.6537897113898579E-17 0 -1.25
v 0.032600136635747595 0.015 -1.2345696542080284
v 0.30650037563562643 0.015 -1.196362202568779
v 0.34207873759010304 0 -1.2022820539660239
v 0.1700022326400033 0.015 -0.66356931883369519
v 0.19156409305045771 0 -0.67327795022097336
v 0.2808156055513466 0.015 -0.62479404260830662
v 0.30371861738229061 0 -0.63067820753169335
v 0.10863669411840417 0.015 -0.24170864422073179
v 0.10847093477938952 0 -0.22524221697560479
v 0.0069951710190065686 0.015 -0.26490765859524495
v -1.5307579422779716E-17 0 -0.25
vn 0.11219497515627441 0.58353642500087588 -0.80429940211769413
vn 0.11219497515627443 0.58353642500087588 -0.80429940211769413
vn 0.11219497515627441 0.58353642500087588 -0.80429940211769391
vn 0.11219497515627441 0.583536425000876 -0.80429940211769413
vn 0.40203942474776339 0.90844879372656417 0.11439007878849419
vn 0.40089621266320041 0.91034800341068522 0.10270705603063954
vn 0.61053991842852229 0.77638579708431044 0.15641643804617661
vn 0.61409610364924683 0.76964732703559424 0.17472540590818125
vn 0.23702069761237737 0.74459691082509516 -0.62401652966333132
vn 0.22375953510255323 0.73553540497674741 -0.63946801208221615
vn 0.24861493521203326 0.65831559273398288 -0.71050066456888072
vn 0.26276585580440359 0.6725851925477323 -0.69179712617855627
vn 0.57524092356594692 0.769647327035599 0.27702142848876155
vn 0.57486338349573574 0.77638579708431521 0.2583741171278332
vn 0.83488229244721468 0.40269863159957242 0.37524041608802639
vn 0.81654350466089676 0.42264586217871858 0.39322662699683475
vn -0.15173401683401341 0.73145801357399276 0.66479016427276072
vn -0.15173401683401322 0.73145801357399254 0.66479016427276061
vn -0.15173401683401336 0.73145801357399209 0.66479016427276127
vn -0.1517340168340135 0.73145801357399221 0.66479016427276116
vn -0.9062949162293753 0.42264586217871514 5.5492725642570606E-17
vn -0.91501366865824618 0.40269863159956903 -0.024161917895974085
vn -0.41369937764517273 0.91034800341068667 -0.010924176040928215
vn -0.4179961592846852 0.90844879372656573 2.5594037626668798E-17
vn 0 1 0
g KeyC
f 1//1 2//2 3//3 4//4
f 4//5 3//6 5//7 6//8
f 6//9 5//10 7//11 8//12
f 8//13 7//14 9//15 10//16
f 10//17 9//18 11//19 12//20
f 12//21 11//22 2//23 1//24
f 2//25 11//25 9//25
f 5//25 3//25 2//25
f 5//25 2//25 9//25
f 9//25 7//25 5//25
