o KeyC#
v 0.34207873759010304 0 -1.2022820539660239
v 0.36622210222856882 0.05 -1.1689766344282884
v 0.60314067273431926 0.05 -1.0662299606058689
v 0.64395473368362022 0 -1.0713646909276307
v 0.36926979963325668 0.05 -0.65279385343216467
v 0.36061465086282729 0 -0.59996422691947315
v 0.22421761360932785 0.05 -0.71569998026221726
v 0.19156409305045771 0 -0.67327795022097336
vn 0.36696499038881647 0.38644339293559576 -0.84616676836505489
vn 0.36696499038881719 0.38644339293559532 -0.84616676836505478
vn 0.36696499038881658 0.38644339293559904 -0.84616676836505345
vn 0.36696499038881608 0.38644339293559865 -0.84616676836505389
vn 0.71969875481620427 0.54305270612376433 0.43258231666084251
vn 0.726463305796336 0.5507967396916732 0.410942838940506
vn 0.81642511703042286 0.34664270291683313 0.46183207423951478
vn 0.79689692036351056 0.36814470131080573 0.47898306568388233
vn -0.27601389864389769 0.72024403483219646 0.636447058319884
vn -0.2760138986438978 0.72024403483219646 0.63644705831988413
vn -0.27601389864389775 0.72024403483219657 0.63644705831988391
vn -0.27601389864389764 0.72024403483219657 0.63644705831988391
vn -0.89427519343042872 0.36814470131081078 -0.25444323003715996
vn -0.895099482129193 0.34664270291683796 -0.28042067257347364
vn -0.796468549582765 0.550796739691679 -0.24952114353405652
vn -0.80764365720137476 0.54305270612377021 -0.22979443281776513
vn 0 1 0
g KeyC#
f 1//1 2//2 3//3 4//4
f 4//5 3//6 5//7 6//8
f 6//9 5//10 7//11 8//12
f 8//13 7//14 2//15 1//16
f 2//17 7//17 5//17
f 5//17 3//17 2//17
