o KeyD
v 0.64395473368362022 0 -1.0713646909276307
v 0.66394688656029321 0.015 -1.0413450589631148
v 0.86749428290098385 0.015 -0.87902142700511454
v 0.90120993254653114 0 -0.86621051568280827
v 0.48116079658880473 0.015 -0.48755439473563028
v 0.50467756222605742 0 -0.48507788878237262
v 0.52409409360819592 0.015 -0.44107865630180221
v 0.54728203772762085 0 -0.43644286130111348
v 0.20275172964404664 0.015 -0.17063626849631766
v 0.19545787061700745 0 -0.1558724504646834
v 0.12124155674596061 0.015 -0.235638462305745
v 0.10847093477938952 0 -0.22524221697560479
v 0.31339798630559629 0.015 -0.609103195016737
v 0.30371861738229061 0 -0.63067820753169335
v 0.36826203829457554 0.015 -0.57758815011314457
v 0.36061465086282729 0 -0.59996422691947315
vn 0.50269913683221867 0.59155204569370767 -0.63036477936487856
vn 0.50269913683221812 0.59155204569370823 -0.63036477936487856
vn 0.50269913683222078 0.59155204569370223 -0.63036477936488178
vn 0.50269913683222078 0.591552045693703 -0.63036477936488122
vn 0.28965813494993015 0.90844879372656973 0.30136183241092174
vn 0.29455658176051647 0.91034800341069078 0.29069388164825422
vn 0.44859129550255183 0.77638579708432087 0.44270864424030176
vn 0.44243902740299823 0.76964732703560479 0.46031586874410252
vn 0.51347888565899236 0.73076044316561939 -0.44980952489557946
vn 0.50922735082689341 0.72069324898705467 -0.47041337782242865
vn 0.53901577846642057 0.67935735689550059 -0.49793129264608182
vn 0.542857869194385 0.69221505873418643 -0.47554563010857204
vn 0.39807907046796126 0.76964732703560013 0.49917536562046
vn 0.4058296837960842 0.77638579708431643 0.4822109101168503
vn 0.58939223905764249 0.40269863159957192 0.700321783644098
vn 0.56506563774543 0.42264586217871819 0.70856989790885039
vn -0.42514926757246935 0.73145801357399165 0.533120319122225
vn -0.42514926757246946 0.73145801357399165 0.533120319122225
vn -0.42514926757246918 0.731458013573992 0.53312031912222468
vn -0.42514926757246913 0.731458013573992 0.53312031912222468
vn -0.816543504660897 0.42264586217871775 -0.39322662699683486
vn -0.81391536588530156 0.40269863159957153 -0.418778687714201
vn -0.56042647609701957 0.77638579708431521 -0.28835266424160061
vn -0.57524092356594692 0.769647327035599 -0.27702142848876155
vn 0.34282546825027188 0.69221505873418288 -0.63506614677576179
vn 0.36550482110790694 0.67935735689549548 -0.63630166381901221
vn 0.34530538660072108 0.72069324898705411 -0.60113678214613542
vn 0.32427205978225832 0.73076044316561972 -0.600696933527181
vn -0.547226734455295 0.76964732703559857 -0.32891624022591587
vn -0.53142996827395028 0.77638579708431466 -0.33883223416036062
vn -0.34895058479569818 0.91034800341068745 -0.22248595923544284
vn -0.35826106080077713 0.90844879372656639 -0.2153364843463555
vn 0 1 0
g KeyD
f 1//1 2//2 3//3 4//4
f 4//5 3//6 5//7 6//8
f 6//9 5//10 7//11 8//12
f 8//13 7//14 9//15 10//16
f 10//17 9//18 11//19 12//20
f 12//21 11//22 13//23 14//24
f 14//25 13//26 15//27 16//28
f 16//29 15//30 2//31 1//32
f 3//33 2//33 15//33
f 5//33 3//33 15//33
f 5//33 15//33 13//33
f 7//33 5//33 13//33
f 9//33 7//33 13//33
f 13//33 11//33 9//33
