o KeyE
v 1.0960186525516233 0 -0.60103503496794941
v 1.0981641545192269 0.015 -0.56503140596702428
v 1.1963622025687788 0.015 -0.30650037563562665
v 1.2186598902272794 0 -0.2781511674453937
v 0.25670929852690394 0.015 -0.065767287079709358
v 0.24373197804545588 0 -0.055630233489078737
v 0.21147456522926347 0.015 -0.15969817864050295
v 0.19545787061700745 0 -0.1558724504646834
v 0.546641800686964 0.015 -0.41280472591979062
v 0.54728203772762085 0 -0.43644286130111348
v 0.609103195016737 0.015 -0.3133979863055964
v 0.613770445428909 0 -0.33657961958205163
vn 0.75916820621871428 0.58353642500087366 -0.28835546702613352
vn 0.75916820621871539 0.58353642500087244 -0.28835546702613307
vn 0.75916820621870651 0.58353642500088554 -0.28835546702612969
vn 0.75916820621870718 0.58353642500088421 -0.28835546702613085
vn 0.093012895754181327 0.9084487937265644 0.40751612287144168
vn 0.10270705603063954 0.91034800341068545 0.4008962126632
vn 0.2271658243012579 0.40269863159956659 0.886695833066428
vn 0.20166959119922109 0.42264586217871247 0.88357221050050672
vn -0.61435849175460766 0.73145801357399109 0.29585945647789363
vn -0.61435849175460777 0.73145801357399109 0.29585945647789336
vn -0.61435849175460688 0.731458013573992 0.29585945647789291
vn -0.61435849175460677 0.73145801357399209 0.29585945647789319
vn -0.56506563774543 0.42264586217871786 -0.7085698979088505
vn -0.55161114288188173 0.4026986315995717 -0.7304512024470744
vn -0.379815275566019 0.77638579708431454 -0.50295670840785367
vn -0.39807907046796265 0.76964732703559824 -0.49917536562046172
vn 0.61598142423321744 0.67258519254773486 -0.41011710981760274
vn 0.63736490193306483 0.65831559273398543 -0.40048291117993523
vn 0.57364403319372359 0.7355354049767493 -0.36044443567202927
vn 0.55562906543193347 0.744596910825097 -0.369934834851976
vn -0.30699391371014667 0.76964732703559868 -0.55981937170116336
vn -0.28835266424160089 0.77638579708431477 -0.56042647609702
vn -0.18933977536365496 0.91034800341068789 -0.36799043758148775
vn -0.20098426896971014 0.90844879372656684 -0.366505269816761
vn 0 1 0
g KeyE
f 1//1 2//2 3//3 4//4
f 4//5 3//6 5//7 6//8
f 6//9 5//10 7//11 8//12
f 8//13 7//14 9//15 10//16
f 10//17 9//18 11//19 12//20
f 12//21 11//22 2//23 1//24
f 3//25 2//25 11//25
f 5//25 3//25 11//25
f 5//25 11//25 9//25
f 9//25 7//25 5//25
