o KeyG
v 1.187796750076269 0 0.389408372416739
v 1.1629784454905512 0.015 0.41557927682258361
v 1.0749338786516316 0.015 0.60806427006276209
v 1.0713646909276315 0 0.64395473368361922
v 0.59621838613471045 0.015 0.33726641699837406
v 0.5999642269194736 0 0.36061465086282674
v 0.54664180068696411 0.015 0.41280472591979045
v 0.54728203772762085 0 0.43644286130111332
v 0.2114745652292635 0.015 0.1596981786405029
v 0.19545787061700748 0 0.15587245046468334
v 0.256709298526904 0.015 0.0657672870797093
v 0.24373197804545593 0 0.055630233489078459
v 0.66356931883369519 0.015 0.17000223264000325
v 0.68244953852727652 0 0.15576465376941967
v 0.64505282199273473 0.015 0.23050348552507671
v 0.66516618004271055 0 0.2180686885533738
vn 0.71743824056269234 0.6144844360850088 0.32816344828087884
vn 0.7174382405626929 0.61448443608500758 0.32816344828088023
vn 0.71743824056268457 0.61448443608501935 0.3281634482808764
vn 0.717438240562686 0.6144844360850179 0.3281634482808759
vn -0.21533648434635733 0.9084487937265644 0.35826106080078113
vn -0.20375991685507969 0.91034800341068556 0.36020606459274035
vn -0.31031364000491729 0.77638579708431 0.5485713617321446
vn -0.32891624022591842 0.76964732703559358 0.54722673445530068
vn 0.55430485520115624 0.7378607842799213 0.38510724548136527
vn 0.57288460699597044 0.72830941817506278 0.37599018400029294
vn 0.62130300109357284 0.66910992839757444 0.40776768453607581
vn 0.60011972645446665 0.68265619000604372 0.41693745354267281
vn -0.3980790704679617 0.76964732703559946 0.49917536562046066
vn -0.37981527556601791 0.77638579708431565 0.50295670840785256
vn -0.5516111428818814 0.40269863159957148 0.73045120244707451
vn -0.56506563774543 0.42264586217871769 0.70856989790885061
vn -0.614358491754607 0.73145801357399221 -0.2958594564778928
vn -0.61435849175460688 0.73145801357399209 -0.29585945647789308
vn -0.61435849175460577 0.7314580135739932 -0.29585945647789258
vn -0.614358491754606 0.73145801357399309 -0.29585945647789236
vn 0.2016695911992189 0.42264586217872413 -0.88357221050050172
vn 0.22716582430125634 0.40269863159957781 -0.88669583306642319
vn 0.15641643804617361 0.77638579708432 -0.61053991842851085
vn 0.14207277534438567 0.7696473270356039 -0.62246149960691854
vn 0.69542955595251243 0.692215058734181 0.19291460589941253
vn 0.70168072678335991 0.6793573568954927 0.21475041162416
vn 0.6629027050799704 0.72069324898705411 0.20288234142512687
vn 0.65779352885636355 0.7307604431656205 0.18247423954925277
vn 0.19890021932928659 0.76964732703560934 -0.606697366681036
vn 0.21208270975716498 0.77638579708432531 -0.59350317464003077
vn 0.13925896169383595 0.91034800341069277 -0.38970944853072259
vn 0.13021696325079354 0.90844879372657206 -0.39719558363415625
vn 0 1 0
g KeyG
f 1//1 2//2 3//3 4//4
f 4//5 3//6 5//7 6//8
f 6//9 5//10 7//11 8//12
f 8//13 7//14 9//15 10//16
f 10//17 9//18 11//19 12//20
f 12//21 11//22 13//23 14//24
f 14//25 13//26 15//27 16//28
f 16//29 15//30 2//31 1//32
f 3//33 2//33 15//33
f 5//33 3//33 15//33
f 5//33 15//33 13//33
f 7//33 5//33 13//33
f 9//33 7//33 13//33
f 13//33 11//33 9//33
