o KeyG#
v 1.0713646909276315 0 0.64395473368361922
v 1.0329131151658431 0.05 0.658570798410007
v 0.87190384460021442 0.05 0.86047003769530828
v 0.86621051568280838 0 0.90120993254653114
v 0.53381868036747826 0.05 0.52681839042569889
v 0.48507788878237268 0 0.50467756222605742
v 0.632395784795414 0.05 0.40320661127143276
v 0.5999642269194736 0 0.36061465086282674
vn 0.72109343930580161 0.38644339293560009 0.57505282874406571
vn 0.7210934393058015 0.38644339293560015 0.5750528287440656
vn 0.7210934393058015 0.38644339293560021 0.5750528287440656
vn 0.72109343930580139 0.38644339293560021 0.5750528287440656
vn -0.60539578331646438 0.54305270612376277 0.58188461391783053
vn -0.586271190285845 0.55079673969167164 0.594061480813092
vn -0.65887226694265311 0.346642702916833 0.6676272705397539
vn -0.67033329166888633 0.36814470131080546 0.64430020718383563
vn -0.54237275130373663 0.72024403483219612 -0.432527836019664
vn -0.54237275130373686 0.72024403483219612 -0.43252783601966371
vn -0.54237275130373741 0.72024403483219546 -0.4325278360196641
vn -0.54237275130373719 0.72024403483219546 -0.43252783601966438
vn 0.47898306568388049 0.36814470131081023 -0.79689692036350956
vn 0.50427558878497758 0.34664270291683741 -0.79091400738011541
vn 0.44870950638266105 0.55079673969167953 -0.70376326305572734
vn 0.43258231666083968 0.54305270612377066 -0.71969875481620149
vn 0 1 0
g KeyG#
f 1//1 2//2 3//3 4//4
f 4//5 3//6 5//7 6//8
f 6//9 5//10 7//11 8//12
f 8//13 7//14 2//15 1//16
f 2//17 7//17 5//17
f 5//17 3//17 2//17
